<svg width="190" height="190" viewBox="0 0 190 190" fill="none" xmlns="http://www.w3.org/2000/svg">
<path d="M121.6 82.46V45.6C121.603 45.0999 121.507 44.6042 121.318 44.1412C121.129 43.6782 120.85 43.2571 120.498 42.902L78.6979 1.10206C78.3428 0.749874 77.9217 0.47124 77.4588 0.282134C76.9958 0.0930291 76.5 -0.00282788 75.9999 6.35131e-05H3.8C2.79217 6.35131e-05 1.82563 0.40042 1.11299 1.11306C0.400356 1.8257 0 2.79224 0 3.80006V167.2C0 168.208 0.400356 169.174 1.11299 169.887C1.82563 170.6 2.79217 171 3.8 171H117.8C118.808 171 119.774 170.6 120.487 169.887C121.2 169.174 121.6 168.208 121.6 167.2V150.328C118.699 147.755 116.145 144.818 114 141.588V163.4H7.59999V7.60006H72.1999V45.6C72.1999 46.6079 72.6003 47.5744 73.3129 48.287C74.0256 48.9997 74.9921 49.4 75.9999 49.4H114V91.2C116.136 87.964 118.692 85.0251 121.6 82.46ZM79.7999 41.8V12.9581L108.642 41.8H79.7999ZM41.8 72.2H19V64.6H41.8V72.2ZM102.6 72.2H49.3999V64.6H102.6V72.2ZM102.6 95H19V87.4H102.6V95ZM161.272 190H142.728C141.971 190.004 141.231 189.782 140.601 189.362C139.971 188.942 139.481 188.344 139.194 187.644L134.596 176.244C134.354 175.666 134.259 175.038 134.319 174.415C134.378 173.792 134.591 173.193 134.938 172.672C135.286 172.156 135.756 171.734 136.306 171.443C136.856 171.151 137.469 170.999 138.092 171H165.908C166.53 170.999 167.143 171.151 167.693 171.443C168.243 171.734 168.713 172.156 169.062 172.672C169.409 173.193 169.621 173.792 169.681 174.415C169.741 175.038 169.645 175.666 169.404 176.244L164.806 187.644C164.518 188.344 164.028 188.942 163.399 189.362C162.769 189.782 162.029 190.004 161.272 190ZM145.274 182.4H158.726L160.246 178.6H143.754L145.274 182.4ZM189.506 110.2C187.971 100.772 182.941 92.2681 175.419 86.3813C167.896 80.4945 158.432 77.6567 148.912 78.4329C139.391 79.2091 130.512 83.5424 124.043 90.5699C117.573 97.5975 113.988 106.804 114 116.356C114.001 122.476 115.481 128.504 118.313 133.929C121.144 139.355 125.244 144.016 130.264 147.516C131.263 148.151 132.181 148.904 133 149.758V163.4C133 164.408 133.4 165.374 134.113 166.087C134.825 166.8 135.792 167.2 136.8 167.2H167.2C168.208 167.2 169.174 166.8 169.887 166.087C170.599 165.374 171 164.408 171 163.4V149.72C171.821 148.905 172.725 148.179 173.698 147.554C178.743 144.076 182.864 139.421 185.705 133.991C188.546 128.562 190.02 122.522 190 116.394C190.005 114.294 189.84 112.197 189.506 110.124V110.2ZM169.29 141.36C167.086 142.88 163.4 145.426 163.4 149.34V159.6H155.8V133H163.4V125.4H140.6V133H148.2V159.6H140.6V149.416C140.6 145.616 136.8 142.842 134.596 141.284C131.143 138.899 128.221 135.826 126.015 132.257C123.808 128.687 122.364 124.7 121.774 120.546C121.183 116.391 121.46 112.159 122.585 108.117C123.71 104.074 125.661 100.309 128.313 97.0567C130.965 93.8048 134.261 91.1371 137.995 89.2217C141.728 87.3062 145.818 86.1844 150.006 85.927C154.195 85.6696 158.391 86.282 162.331 87.7258C166.271 89.1695 169.869 91.4134 172.9 94.316C177.713 98.825 180.905 104.795 181.982 111.302C182.942 117 182.258 122.854 180.01 128.178C177.762 133.502 174.043 138.074 169.29 141.36ZM60.7999 49.4H19V41.8H60.7999V49.4ZM64.5999 117.8H19V110.2H64.5999V117.8ZM102.6 117.8H72.1999V110.2H102.6V117.8ZM68.3999 140.6H19V133H68.3999V140.6Z" fill="white"/>
</svg>
