<svg width="190" height="190" viewBox="0 0 190 190" fill="none" xmlns="http://www.w3.org/2000/svg">
<path d="M176.292 190H148.758V181.375H168.346V45.6242H176.292V190Z" fill="white"/>
<path d="M148.758 190H0V8.40891H142.957V17.0335H7.94646V181.375H148.758V190Z" fill="white"/>
<path d="M53.9565 98.7948H19.4291V90.1702H51.2149L61.9029 59.596C62.1935 58.7787 62.7065 58.0768 63.3737 57.5838C64.0409 57.0908 64.8306 56.83 65.6378 56.8361H101.397L114.667 30.9623C115.012 30.2962 115.514 29.7416 116.122 29.3551C116.729 28.9687 117.42 28.7644 118.124 28.7631H154.44L179.948 5.64914L185.033 12.2901L158.453 36.3958C157.738 37.0387 156.838 37.3896 155.91 37.3877H120.349L107.079 63.2615C106.739 63.9356 106.239 64.4989 105.631 64.8932C105.024 65.2874 104.33 65.4983 103.622 65.5039H68.3793L57.6516 96.0781C57.3572 96.8804 56.8475 97.5684 56.1887 98.0528C55.5299 98.5371 54.7522 98.7957 53.9565 98.7948Z" fill="white"/>
<path d="M190 23.4589H182.053V8.6246H168.425V0H190V23.4589Z" fill="white"/>
<path d="M55.3075 171.457H20.3033V108.584H55.3075V171.457ZM28.2498 162.832H47.3611V117.208H28.2498V162.832Z" fill="white"/>
<path d="M104.933 171.457H69.8893V75.1634H104.933V171.457ZM77.8755 162.832H96.9867V83.788H77.8357L77.8755 162.832Z" fill="white"/>
<path d="M154.956 171.457H119.952V47.4784H154.956V171.457ZM127.898 162.832H147.009V56.103H127.898V162.832Z" fill="white"/>
</svg>
