<svg width="190" height="190" viewBox="0 0 190 190" fill="none" xmlns="http://www.w3.org/2000/svg">
<path d="M117.336 0H7.97432C5.85591 0.0100511 3.8277 0.859573 2.3333 2.36275C0.83891 3.86593 -2.3791e-05 5.90042 5.06016e-10 8.02121V79.4138C-2.3791e-05 81.5346 0.83891 83.569 2.3333 85.0722C3.8277 86.5754 5.85591 87.4249 7.97432 87.435H22.5559L22.7838 87.8531V108.305C22.8809 109.433 23.2867 110.513 23.9566 111.425C24.6265 112.337 25.5346 113.046 26.5811 113.475C27.271 113.746 28.0046 113.887 28.7455 113.894C30.2587 113.888 31.7125 113.303 32.8086 112.259L53.0862 92.491V81.9228L30.3024 104.162V88.1192C30.4105 87.0824 30.3045 86.0345 29.9909 85.0405C29.6774 84.0464 29.163 83.1275 28.4797 82.3409C27.7393 81.5509 26.8453 80.9208 25.8528 80.4893C24.8602 80.0578 23.7899 79.8341 22.7078 79.8319H7.97432C7.87024 79.8224 7.77351 79.7742 7.70321 79.6968C7.63291 79.6194 7.59416 79.5184 7.59459 79.4138V8.02121C7.59416 7.91658 7.63291 7.8156 7.70321 7.73819C7.77351 7.66077 7.87024 7.61255 7.97432 7.60304H117.336C117.44 7.61255 117.537 7.66077 117.607 7.73819C117.678 7.8156 117.717 7.91658 117.716 8.02121V68.4274H125.311V8.02121C125.311 5.90042 124.472 3.86593 122.977 2.36275C121.483 0.859573 119.455 0.0100511 117.336 0ZM83.5405 26.6106H18.9865V19.0076H83.5405V26.6106ZM106.324 26.6106H91.1351V19.0076H106.324V26.6106ZM53.1621 45.6182H18.9865V38.0152H53.1621V45.6182ZM106.324 45.6182H64.554V38.0152H106.324V45.6182ZM72.1486 64.6258H18.9865V57.0228H72.1486V64.6258ZM94.9324 64.6258H79.7432V57.0228H94.9324V64.6258ZM153.79 190C152.377 189.964 151.025 189.409 149.993 188.441L124.172 163.427H68.6171C66.5045 163.311 64.5155 162.394 63.0552 160.861C61.5948 159.328 60.7729 157.296 60.7567 155.178V82.0748C60.7467 80.7918 60.9892 79.5194 61.4704 78.3302C61.9516 77.141 62.6621 76.0584 63.5613 75.1441C64.4604 74.2298 65.5307 73.5018 66.7109 73.0016C67.8911 72.5014 69.1582 72.2388 70.4398 72.2289H182.384C183.431 72.2259 184.468 72.4398 185.428 72.857C186.389 73.2743 187.253 73.8859 187.966 74.6534C188.679 75.421 189.226 76.3279 189.573 77.3172C189.919 78.3065 190.057 79.3568 189.979 80.4022V155.368C189.999 157.479 189.183 159.512 187.71 161.022C186.237 162.533 184.227 163.397 182.118 163.427H159.79C159.69 163.476 159.605 163.552 159.545 163.645C159.484 163.739 159.451 163.848 159.448 163.96V184.07C159.493 185.22 159.191 186.357 158.581 187.333C157.972 188.309 157.083 189.08 156.031 189.544C155.319 189.835 154.559 189.989 153.79 190ZM124.551 155.862C126.331 155.855 128.045 156.536 129.336 157.763L152.12 179.926V163.884C152.119 161.776 152.948 159.753 154.426 158.252C155.904 156.751 157.913 155.892 160.018 155.862H182.232C182.318 155.813 182.388 155.74 182.435 155.653C182.482 155.566 182.504 155.467 182.498 155.368V80.4022C182.498 80.2408 182.434 80.0861 182.32 79.9721C182.206 79.858 182.052 79.7939 181.89 79.7939H70.0221C68.8829 79.7939 68.3513 80.3641 68.3513 81.6186V154.988C68.3513 155.368 68.9589 155.862 69.2247 155.862H124.551ZM127.931 148.259H122.994C122.309 148.272 121.632 148.098 121.037 147.757C120.442 147.415 119.951 146.919 119.615 146.321L117.64 142.519C116.342 142.066 115.074 141.533 113.843 140.922L109.742 142.253C109.086 142.459 108.386 142.484 107.717 142.323C107.048 142.162 106.436 141.823 105.945 141.341L102.451 137.805C101.963 137.317 101.617 136.706 101.449 136.036C101.282 135.367 101.3 134.664 101.502 134.004L102.831 129.974C102.087 128.667 101.5 127.276 101.084 125.83L97.2867 123.968C96.6618 123.644 96.1391 123.152 95.777 122.548C95.4149 121.944 95.2277 121.251 95.2361 120.546V115.604C95.2347 114.906 95.4253 114.221 95.787 113.624C96.1487 113.028 96.6675 112.542 97.2867 112.221L101.084 110.282C101.539 108.886 102.097 107.527 102.755 106.214L101.464 102.147C101.262 101.487 101.244 100.784 101.411 100.114C101.579 99.4445 101.925 98.833 102.413 98.3453L105.907 94.8479C106.394 94.3593 107.004 94.0126 107.673 93.8452C108.342 93.6778 109.044 93.6959 109.704 93.8975L113.729 95.2281C114.957 94.4306 116.238 93.7193 117.564 93.0992L119.615 89.2977C119.93 88.6708 120.413 88.1436 121.01 87.7745C121.606 87.4055 122.293 87.209 122.994 87.2069H127.931C128.632 87.209 129.319 87.4055 129.916 87.7745C130.512 88.1436 130.995 88.6708 131.31 89.2977L133.209 93.0992C134.625 93.5282 135.998 94.0882 137.31 94.7719L141.107 93.4794C141.767 93.2777 142.469 93.2596 143.138 93.427C143.807 93.5945 144.418 93.9411 144.905 94.4298L148.398 97.9272C148.88 98.4188 149.219 99.0321 149.379 99.7017C149.54 100.371 149.516 101.072 149.31 101.729L148.019 105.796C148.82 107.118 149.481 108.519 149.993 109.978L153.79 112.107C154.417 112.423 154.943 112.906 155.312 113.503C155.681 114.1 155.877 114.788 155.879 115.49V120.432C155.824 121.082 155.603 121.706 155.237 122.245C154.871 122.784 154.373 123.22 153.79 123.511L149.993 125.412C149.542 126.815 148.97 128.176 148.284 129.48L149.613 133.547C149.82 134.204 149.844 134.905 149.683 135.574C149.523 136.244 149.184 136.857 148.702 137.349L145.209 140.884C144.717 141.366 144.105 141.706 143.436 141.867C142.767 142.027 142.067 142.003 141.411 141.797L137.348 140.466C136.128 141.112 134.858 141.658 133.551 142.101L131.614 145.902C131.307 146.633 130.78 147.249 130.106 147.665C129.432 148.081 128.645 148.275 127.855 148.221L127.931 148.259ZM125.311 140.656H125.577L127.209 137.425C127.459 136.933 127.812 136.502 128.245 136.16C128.678 135.819 129.18 135.576 129.716 135.448C131.516 135.002 133.234 134.27 134.804 133.281C135.276 132.988 135.806 132.803 136.357 132.737C136.908 132.671 137.467 132.727 137.994 132.901L141.411 134.042L141.601 133.814L140.5 130.392C140.332 129.87 140.279 129.318 140.345 128.773C140.41 128.228 140.593 127.704 140.88 127.237C141.836 125.626 142.552 123.884 143.006 122.067C143.134 121.53 143.376 121.028 143.717 120.595C144.058 120.161 144.489 119.808 144.981 119.558L148.17 117.923V117.619L144.943 115.908C144.456 115.663 144.027 115.315 143.686 114.888C143.346 114.462 143.101 113.967 142.968 113.437C142.547 111.621 141.828 109.887 140.842 108.305C140.555 107.838 140.372 107.314 140.307 106.769C140.241 106.225 140.294 105.672 140.462 105.15L141.563 101.729L141.373 101.539L137.994 102.603C137.472 102.771 136.92 102.824 136.376 102.759C135.832 102.693 135.309 102.51 134.842 102.223C133.225 101.246 131.472 100.515 129.64 100.056C129.107 99.9325 128.607 99.6953 128.175 99.3607C127.742 99.0261 127.387 98.6019 127.133 98.1172L125.539 94.924H125.235L123.602 98.1172C123.365 98.5747 123.037 98.9791 122.639 99.3059C122.241 99.6327 121.78 99.8749 121.286 100.018C119.38 100.526 117.543 101.267 115.817 102.223C115.351 102.51 114.827 102.693 114.283 102.759C113.739 102.824 113.187 102.771 112.666 102.603L109.286 101.539L109.058 101.729L110.159 105.15C110.327 105.672 110.38 106.225 110.315 106.769C110.249 107.314 110.067 107.838 109.78 108.305C108.817 109.926 108.1 111.681 107.653 113.513C107.521 114.043 107.276 114.538 106.935 114.964C106.594 115.391 106.166 115.739 105.679 115.984L102.527 117.619V117.923L105.717 119.558C106.237 119.823 106.689 120.204 107.038 120.672C107.387 121.14 107.623 121.682 107.729 122.257C108.1 124.078 108.851 125.801 109.932 127.313C110.219 127.78 110.401 128.304 110.467 128.849C110.532 129.394 110.479 129.946 110.311 130.468L109.172 133.89L109.4 134.118L112.818 132.977C113.339 132.809 113.891 132.756 114.435 132.822C114.979 132.887 115.503 133.07 115.969 133.357C117.645 134.297 119.431 135.025 121.286 135.524C121.784 135.672 122.246 135.92 122.644 136.253C123.043 136.587 123.369 136.998 123.602 137.463L125.311 140.656ZM125.311 129.252C123.058 129.252 120.855 128.583 118.982 127.33C117.108 126.077 115.648 124.295 114.786 122.211C113.924 120.128 113.698 117.834 114.138 115.622C114.577 113.41 115.662 111.378 117.255 109.783C118.849 108.188 120.878 107.102 123.088 106.662C125.298 106.222 127.589 106.448 129.67 107.311C131.752 108.174 133.531 109.636 134.783 111.511C136.034 113.387 136.703 115.592 136.703 117.847C136.693 120.852 135.498 123.732 133.38 125.86C131.261 127.989 128.388 129.194 125.387 129.214L125.311 129.252ZM125.311 113.247C124.399 113.24 123.505 113.504 122.744 114.007C121.982 114.509 121.388 115.227 121.035 116.069C120.683 116.911 120.589 117.839 120.765 118.735C120.941 119.631 121.379 120.454 122.024 121.1C122.669 121.745 123.491 122.184 124.386 122.36C125.281 122.537 126.208 122.442 127.049 122.089C127.89 121.737 128.607 121.141 129.109 120.379C129.611 119.617 129.875 118.722 129.867 117.809C129.878 116.606 129.412 115.447 128.573 114.586C127.734 113.724 126.589 113.229 125.387 113.209L125.311 113.247Z" fill="white"/>
</svg>
