<svg width="190" height="190" viewBox="0 0 190 190" fill="none" xmlns="http://www.w3.org/2000/svg">
<path d="M94.995 150.079C83.7784 150.079 72.8137 146.848 63.4874 140.795C54.1612 134.742 46.8922 126.138 42.5998 116.072C38.3074 106.006 37.1843 94.929 39.3726 84.2427C41.5608 73.5565 46.9621 63.7405 54.8935 56.0361C62.8248 48.3317 72.93 43.085 83.931 40.9594C94.9321 38.8337 106.335 39.9247 116.698 44.0943C127.061 48.2638 135.918 55.3248 142.149 64.3842C148.381 73.4436 151.707 84.0945 151.707 94.9901C151.686 109.594 145.705 123.595 135.074 133.922C124.442 144.249 110.03 150.059 94.995 150.079ZM94.995 47.5628C85.3385 47.5628 75.8987 50.3443 67.8696 55.5557C59.8404 60.7671 53.5825 68.1742 49.8871 76.8405C46.1916 85.5067 45.2248 95.0427 47.1087 104.243C48.9926 113.443 53.6426 121.894 60.4709 128.526C67.2991 135.159 75.9988 139.676 85.4698 141.506C94.9409 143.336 104.758 142.397 113.679 138.807C122.601 135.218 130.226 129.139 135.591 121.339C140.956 113.54 143.82 104.37 143.82 94.9901C143.799 82.4178 138.648 70.3663 129.496 61.4763C120.344 52.5863 107.938 47.583 94.995 47.5628Z" fill="white"/>
<path d="M22.5074 68.5182L15.1324 65.7982C21.3455 50.0616 32.3127 36.5181 46.5937 26.9463C60.8748 17.3744 77.802 12.2216 95.1526 12.1647C95.9326 12.1678 96.6941 12.3956 97.3408 12.8192C97.9875 13.2427 98.4904 13.8431 98.7859 14.5443C99.0814 15.2454 99.1562 16.016 99.0009 16.7585C98.8456 17.501 98.4671 18.1821 97.9133 18.7156L84.7409 31.511L79.1801 26.0711L85.1353 20.5162C71.2181 22.3097 58.0561 27.7147 47.0347 36.1622C36.0133 44.6096 27.5402 55.7872 22.5074 68.5182Z" fill="white"/>
<path d="M176.75 99.1277C176.231 99.1306 175.717 99.034 175.236 98.8434C174.756 98.6527 174.319 98.3718 173.95 98.0167L160.817 85.4129L166.378 79.9729L172.136 85.4129C170.255 71.9184 164.672 59.1641 155.97 48.4873C147.269 37.8106 135.77 29.6047 122.68 24.7304L125.481 17.5665C141.681 23.6017 155.623 34.2551 165.477 48.1274C175.331 61.9998 180.635 78.4427 180.694 95.2968C180.694 96.3128 180.279 97.2872 179.539 98.0057C178.799 98.7241 177.796 99.1277 176.75 99.1277Z" fill="white"/>
<path d="M95.1527 178.39C94.3775 178.387 93.6204 178.162 92.976 177.743C92.3316 177.325 91.8286 176.731 91.5299 176.036C91.2311 175.341 91.1498 174.576 91.2961 173.836C91.4424 173.097 91.8099 172.415 92.3526 171.878L105.525 159.082L111.086 164.484L105.328 170.077C119.239 168.268 132.394 162.857 143.413 154.411C154.431 145.966 162.908 134.797 167.956 122.075L175.331 124.795C169.097 140.546 158.102 154.095 143.791 163.661C129.48 173.227 112.524 178.362 95.1527 178.39Z" fill="white"/>
<path d="M64.7852 173.027C48.5851 166.992 34.6426 156.338 24.7888 142.466C14.9349 128.594 9.63039 112.151 9.57172 95.2968C9.56717 94.5358 9.79599 93.7908 10.229 93.1567C10.6621 92.5226 11.2797 92.0282 12.0032 91.7364C12.7266 91.4446 13.5232 91.3687 14.2912 91.5184C15.0593 91.668 15.764 92.0365 16.3157 92.5768L29.488 105.372L23.8878 110.774L18.0904 105.219C19.9851 118.709 25.5793 131.457 34.2871 142.126C42.9948 152.795 54.4958 160.994 67.5854 165.863L64.7852 173.027Z" fill="white"/>
<path d="M9.88453 93.6573L0 109.295L6.72173 113.304L16.6063 97.6663L9.88453 93.6573Z" fill="white"/>
<path d="M183.279 77.9712L173.392 93.6074L180.113 97.6176L190 81.9814L183.279 77.9712Z" fill="white"/>
<path d="M84.0675 8.46252e-07L78.625 5.54579L92.2984 18.2075L97.7409 12.6617L84.0675 8.46252e-07Z" fill="white"/>
<path d="M97.8624 171.793L92.4199 177.338L106.093 190L111.536 184.454L97.8624 171.793Z" fill="white"/>
<path d="M94.7977 95.0285C91.0442 95.036 87.3727 93.9618 84.2479 91.9416C81.1232 89.9214 78.6856 87.0462 77.2438 83.6798C75.802 80.3134 75.4207 76.6071 76.1482 73.0301C76.8757 69.4531 78.6792 66.1662 81.3306 63.5853C83.982 61.0044 87.3621 59.2456 91.0429 58.5315C94.7238 57.8174 98.54 58.18 102.009 59.5736C105.477 60.9672 108.442 63.329 110.528 66.3601C112.614 69.3912 113.728 72.9554 113.728 76.6015C113.718 81.4789 111.721 86.1543 108.174 89.6067C104.628 93.0591 99.8187 95.0082 94.7977 95.0285ZM94.7977 65.8748C92.6025 65.8672 90.4545 66.4931 88.626 67.6731C86.7975 68.853 85.371 70.5339 84.5273 72.5025C83.6836 74.4711 83.4609 76.6388 83.8872 78.7305C84.3135 80.8223 85.3698 82.744 86.9221 84.2518C88.4743 85.7596 90.4526 86.7857 92.6059 87.1998C94.7593 87.6139 96.9908 87.3975 99.0174 86.578C101.044 85.7585 102.774 84.3728 103.989 82.5966C105.204 80.8205 105.848 78.7339 105.84 76.6015C105.83 73.7597 104.663 71.0372 102.595 69.0277C100.526 67.0183 97.7232 65.8849 94.7977 65.8748Z" fill="white"/>
<path d="M121.182 122.458H68.4135C67.3676 122.458 66.3645 122.055 65.6248 121.336C64.8852 120.618 64.4697 119.643 64.4697 118.627C64.4439 113.42 65.7847 108.291 68.3654 103.727C70.9461 99.162 74.6817 95.3114 79.2196 92.5384C83.9497 89.6728 89.4205 88.1715 94.9949 88.2094C103.164 88.3505 110.943 91.631 116.628 97.3323C122.312 103.034 125.439 110.691 125.323 118.627C125.324 119.147 125.215 119.661 125.005 120.139C124.795 120.617 124.486 121.048 124.099 121.406C123.712 121.765 123.253 122.043 122.752 122.223C122.25 122.404 121.716 122.484 121.182 122.458ZM72.6729 114.796H116.923C116.139 109.608 113.485 104.858 109.433 101.392C105.382 97.9264 100.195 95.97 94.7977 95.8713C90.7554 95.8792 86.7951 96.9802 83.3606 99.051C80.5342 100.792 78.1201 103.096 76.2778 105.81C74.4354 108.524 73.2068 111.587 72.6729 114.796Z" fill="white"/>
</svg>
