<svg width="190" height="190" viewBox="0 0 190 190" fill="none" xmlns="http://www.w3.org/2000/svg">
<path d="M57.1038 144.4H3.80692C2.79726 144.4 1.82896 143.999 1.11502 143.287C0.401086 142.574 0 141.608 0 140.6V110.2H7.61384V136.8H57.1038V144.4Z" fill="white"/>
<path d="M101.683 39.102L63.6136 1.10206C63.2579 0.749873 62.836 0.471239 62.3722 0.282134C61.9084 0.093029 61.4117 -0.00282788 60.9107 6.3513e-05H3.80692C2.79726 6.3513e-05 1.82896 0.40042 1.11502 1.11306C0.401086 1.82569 0 2.79224 0 3.80006V91.1999H7.61384V7.60005H57.1038V41.8C57.1038 42.8078 57.5049 43.7744 58.2188 44.487C58.9327 45.1996 59.901 45.6 60.9107 45.6H95.1729V53.2H102.787V41.8C102.79 41.2999 102.694 40.8041 102.504 40.3411C102.315 39.8782 102.036 39.4571 101.683 39.102ZM64.7176 38V12.958L89.8052 38H64.7176Z" fill="white"/>
<path d="M45.683 64.5999H15.2277V72.1999H45.683V64.5999Z" fill="white"/>
<path d="M185.207 190C184.479 190.008 183.76 189.839 183.113 189.506L151.287 173.622C142.706 178.437 133.076 181.088 123.235 181.344C113.395 181.6 103.64 179.453 94.8192 175.09C85.9985 170.727 78.3787 164.28 72.6219 156.309C66.8651 148.338 63.1455 139.084 61.7864 129.352L69.4002 128.326C70.6048 137.003 73.9556 145.244 79.1499 152.305C84.3442 159.365 91.2186 165.023 99.1523 168.768C107.086 172.513 115.829 174.226 124.592 173.753C133.355 173.28 141.862 170.636 149.345 166.06C149.924 165.726 150.581 165.551 151.249 165.551C151.917 165.551 152.574 165.726 153.152 166.06L179.154 179.056L166.096 153.52C165.762 152.942 165.586 152.287 165.586 151.62C165.586 150.953 165.762 150.298 166.096 149.72C171.631 141.273 174.556 131.389 174.509 121.296C174.557 112.177 172.234 103.202 167.767 95.2477C163.3 87.2933 156.842 80.6319 149.024 75.9144C141.206 71.197 132.296 68.5849 123.164 68.3334C114.032 68.082 104.991 70.1998 96.9242 74.4799L93.3457 67.792C102.542 62.9329 112.84 60.5285 123.241 60.8119C133.642 61.0953 143.793 64.0569 152.709 69.4094C161.626 74.762 169.006 82.3238 174.133 91.3615C179.259 100.399 181.959 110.606 181.971 120.992C181.996 131.802 179.075 142.416 173.519 151.696L189.47 182.894C189.93 183.783 190.097 184.795 189.946 185.784C189.796 186.774 189.336 187.691 188.633 188.404C188.2 188.888 187.673 189.279 187.084 189.553C186.495 189.827 185.856 189.979 185.207 190Z" fill="white"/>
<path d="M121.821 106.4H114.208V136.8H121.821V106.4Z" fill="white"/>
<path d="M133.242 102.6H125.628V140.6H133.242V102.6Z" fill="white"/>
<path d="M144.663 98.7999H137.049V144.4H144.663V98.7999Z" fill="white"/>
<path d="M156.084 110.2H148.47V136.8H156.084V110.2Z" fill="white"/>
<path d="M98.9799 106.4H91.3661V136.8H98.9799V106.4Z" fill="white"/>
<path d="M87.5591 83.5999H15.2277V91.1999H87.5591V83.5999Z" fill="white"/>
<path d="M68.5245 102.6H15.2277V110.2H68.5245V102.6Z" fill="white"/>
<path d="M68.5245 64.5999H53.2969V72.1999H68.5245V64.5999Z" fill="white"/>
<path d="M110.401 114H102.787V129.2H110.401V114Z" fill="white"/>
<path d="M118.014 83.5999H95.173V90.8199H118.014V83.5999Z" fill="white"/>
</svg>
