<svg width="190" height="190" viewBox="0 0 190 190" fill="none" xmlns="http://www.w3.org/2000/svg">
<path d="M101.585 23.0305C84.3011 23.0305 67.7255 29.9053 55.5042 42.1425C43.2829 54.3797 36.4171 70.9769 36.4171 88.2829C36.4281 98.9067 39.0618 109.363 44.0839 118.721L3.8334 159.293C1.06515 162.989 -0.27882 167.56 0.0482452 172.169C0.37531 176.777 2.35146 181.112 5.61388 184.379C8.8763 187.645 13.206 189.624 17.8082 189.952C22.4103 190.279 26.976 188.933 30.667 186.162L38.3338 178.715L70.7642 146.127L71.1092 145.782C79.8603 150.455 89.5611 153.066 99.4727 153.417C109.384 153.768 119.245 151.849 128.304 147.806C137.362 143.763 145.38 137.704 151.746 130.089C158.112 122.473 162.658 113.504 165.038 103.864C167.418 94.223 167.569 84.1658 165.479 74.458C163.39 64.7502 159.115 55.648 152.981 47.8448C146.846 40.0417 139.014 33.7434 130.081 29.4299C121.147 25.1164 111.349 22.9014 101.431 22.9537L101.585 23.0305ZM25.377 180.865C23.1969 182.899 20.3135 184.006 17.3342 183.953C14.3549 183.901 11.5123 182.692 9.40527 180.582C7.29824 178.473 6.09131 175.626 6.03875 172.643C5.98618 169.66 7.09208 166.773 9.12346 164.59L48.1472 125.515C52.5642 131.857 58.0669 137.367 64.4008 141.79L25.377 180.865ZM101.585 145.859C90.212 145.859 79.0948 142.482 69.6389 136.155C60.1829 129.829 52.8129 120.837 48.4608 110.316C44.1088 99.7956 42.9701 88.219 45.1887 77.0505C47.4074 65.8819 52.8838 55.6229 60.9254 47.5708C68.967 39.5187 79.2127 34.0351 90.3667 31.8136C101.521 29.592 113.082 30.7322 123.589 35.0899C134.096 39.4477 143.076 46.8273 149.395 56.2956C155.713 65.7639 159.085 76.8955 159.085 88.2829C159.085 103.553 153.027 118.198 142.244 128.995C131.46 139.793 116.835 145.859 101.585 145.859Z" fill="white"/>
<path d="M101.585 0.000348591C88.9028 -0.0256064 76.3688 2.72552 64.8608 8.06094L68.0425 15.0468C80.3493 9.34522 93.8951 6.84891 107.423 7.78952C120.95 8.73013 134.022 13.0772 145.423 20.4272C156.825 27.7773 166.187 37.8922 172.642 49.8332C179.097 61.7743 182.434 75.1545 182.345 88.7321C182.256 102.31 178.743 115.645 172.132 127.5C165.521 139.355 156.026 149.345 144.529 156.545C133.032 163.744 119.904 167.918 106.366 168.681C92.8268 169.443 79.315 166.768 67.0842 160.905L61.3341 166.701C73.2029 172.847 86.3114 176.211 99.6692 176.539C113.027 176.867 126.284 174.151 138.44 168.596C150.596 163.041 161.331 154.792 169.836 144.473C178.34 134.153 184.391 122.033 187.531 109.029C190.671 96.0244 190.818 82.4754 187.961 69.4056C185.104 56.3358 179.317 44.0872 171.039 33.5854C162.76 23.0835 152.206 14.603 140.174 8.78479C128.142 2.96656 114.946 -0.0372465 101.585 0.000348591ZM31.5488 48.6326L24.917 44.7942C17.694 57.5183 13.76 71.8475 13.4721 86.4806C13.1842 101.114 16.5517 115.587 23.2687 128.586L28.9804 122.752C23.3784 111.1 20.6854 98.2606 21.1328 85.3368C21.5801 72.413 25.1545 59.7911 31.5488 48.5558V48.6326Z" fill="white"/>
<path d="M136.085 122.828H116.918V115.152H128.418V103.636H136.085V122.828Z" fill="white"/>
<path d="M136.085 72.9294H128.418V61.4143H116.918V53.7375H136.085V72.9294Z" fill="white"/>
<path d="M74.7507 72.9294H67.084V53.7375H86.2509V61.4143H74.7507V72.9294Z" fill="white"/>
<path d="M86.2509 122.828H67.084V103.636H74.7507V115.152H86.2509V122.828Z" fill="white"/>
<path d="M82.4177 107.475H94.7612L82.4177 95.1153V107.475Z" fill="white"/>
<path d="M82.4177 69.091V81.4506L94.7612 69.091H82.4177Z" fill="white"/>
<path d="M120.751 69.091H108.408L120.751 81.4506V69.091Z" fill="white"/>
<path d="M120.751 107.475V95.1153L108.408 107.475H120.751Z" fill="white"/>
</svg>
