<svg width="190" height="190" viewBox="0 0 190 190" fill="none" xmlns="http://www.w3.org/2000/svg">
<path d="M187.116 180.065H179.426V173.385H184.309V32.9137L158.278 6.68119H80.4549V11.803H74.6874V3.34088C74.6822 2.90057 74.7533 2.46352 74.8964 2.05554C75.0395 1.64757 75.2517 1.27696 75.5205 0.96558C75.7893 0.654202 76.1093 0.40838 76.4615 0.242635C76.8137 0.0768901 77.191 -0.00541724 77.5712 0.000574256H159.278C159.971 -0.0146004 160.643 0.271442 161.162 0.80225L189.039 28.8608C189.342 29.1746 189.584 29.5591 189.75 29.9889C189.915 30.4187 190.001 30.8842 190 31.3549V176.725C190 177.611 189.696 178.461 189.155 179.087C188.615 179.714 187.881 180.065 187.116 180.065Z" fill="white"/>
<path d="M174.927 189.997H68.9582C68.1934 189.997 67.4599 189.645 66.9191 189.019C66.3783 188.393 66.0745 187.543 66.0745 186.657V162.028H71.842V183.317H172.044V46.8985L149.512 20.7996H71.842V47.0322H66.2283V17.4593C66.2382 16.577 66.5453 15.734 67.0839 15.1101C67.6226 14.4862 68.3503 14.1305 69.112 14.119H150.819C151.584 14.1198 152.317 14.4722 152.857 15.0988L177.081 43.1574C177.622 43.7832 177.926 44.6323 177.927 45.5179V186.657C177.927 187.107 177.849 187.553 177.697 187.967C177.544 188.381 177.322 188.755 177.042 189.067C176.761 189.379 176.43 189.623 176.066 189.782C175.703 189.942 175.316 190.015 174.927 189.997Z" fill="white"/>
<path d="M174.927 48.8582H150.819C150.057 48.8466 149.33 48.491 148.791 47.8671C148.252 47.2431 147.945 46.4002 147.935 45.5179V17.4593H153.703V42.1775H175.043L174.927 48.8582Z" fill="white"/>
<path d="M105.217 104.975H77.3022V111.656H105.217V104.975Z" fill="white"/>
<path d="M100.065 121.855H69.1121V128.536H100.065V121.855Z" fill="white"/>
<path d="M160.932 105.064H115.752V111.745H160.932V105.064Z" fill="white"/>
<path d="M160.278 125.463H127.211V132.143H160.278V125.463Z" fill="white"/>
<path d="M160.278 66.005H104.717V72.6856H160.278V66.005Z" fill="white"/>
<path d="M160.278 83.7754H127.48V90.456H160.278V83.7754Z" fill="white"/>
<path d="M56.3081 104.085H40.4666V110.765H56.3081V104.085Z" fill="white"/>
<path d="M26.3938 104.085H4.74622V110.765H26.3938V104.085Z" fill="white"/>
<path d="M39.89 90.0999H19.3575V96.7805H39.89V90.0999Z" fill="white"/>
<path d="M43.5426 118.426H15.0125V125.106H43.5426V118.426Z" fill="white"/>
<path d="M72.1111 145.861C65.0843 145.861 58.2153 143.447 52.3728 138.925C46.5302 134.403 41.9765 127.976 39.2874 120.456C36.5984 112.937 35.8948 104.662 37.2657 96.6795C38.6365 88.6967 42.0203 81.364 46.989 75.6087C51.9577 69.8534 58.2882 65.934 65.1799 64.3461C72.0717 62.7582 79.2152 63.5732 85.7072 66.6879C92.1991 69.8027 97.7478 75.0773 101.652 81.8448C105.556 88.6123 107.639 96.5688 107.639 104.708C107.639 110.112 106.72 115.464 104.935 120.456C103.149 125.449 100.532 129.986 97.2333 133.807C93.9342 137.629 90.0176 140.66 85.7072 142.728C81.3967 144.796 76.7768 145.861 72.1111 145.861ZM72.1111 70.1469C66.2251 70.1469 60.4712 72.1687 55.5771 75.9565C50.683 79.7443 46.8685 85.1281 44.616 91.427C42.3635 97.726 41.7741 104.657 42.9224 111.344C44.0707 118.031 46.9052 124.173 51.0672 128.994C55.2293 133.815 60.5322 137.098 66.3051 138.429C72.0781 139.759 78.062 139.076 83.5 136.467C88.938 133.858 93.586 129.439 96.8561 123.771C100.126 118.102 101.872 111.437 101.872 104.619C101.841 95.4954 98.6935 86.757 93.1167 80.3141C87.5399 73.8711 79.9877 70.2477 72.1111 70.236V70.1469Z" fill="white"/>
<path d="M72.1114 158.999C62.8411 158.999 53.7791 155.815 46.0712 149.849C38.3633 143.884 32.3558 135.405 28.8082 125.484C25.2607 115.564 24.3325 104.648 26.141 94.1164C27.9495 83.5849 32.4135 73.9111 38.9686 66.3184C45.5236 58.7256 53.8752 53.5549 62.9673 51.4601C72.0594 49.3652 81.4836 50.4404 90.0481 54.5496C98.6127 58.6587 105.933 65.6174 111.083 74.5455C116.233 83.4736 118.982 93.9703 118.982 104.708C118.962 119.1 114.017 132.895 105.232 143.072C96.4461 153.248 84.5361 158.976 72.1114 158.999ZM72.1114 57.0975C63.9819 57.0975 56.0349 59.8898 49.2755 65.1213C42.5161 70.3528 37.2478 77.7886 34.1367 86.4883C31.0257 95.188 30.2117 104.761 31.7977 113.996C33.3837 123.232 37.2984 131.715 43.0468 138.374C48.7953 145.032 56.1192 149.567 64.0925 151.404C72.0658 153.241 80.3303 152.298 87.841 148.694C95.3516 145.091 101.771 138.989 106.288 131.159C110.804 123.33 113.215 114.125 113.215 104.708C113.194 92.0923 108.856 80.0006 101.151 71.0841C93.446 62.1676 83.0029 57.1538 72.1114 57.142V57.0975Z" fill="white"/>
<path d="M71.9958 88.7638H66.2283V107.247H71.9958V88.7638Z" fill="white"/>
<path d="M81.6084 93.4401H75.8409V91.6586H62.1141V93.4401H56.3466V88.3183C56.3466 87.4324 56.6504 86.5827 57.1912 85.9563C57.732 85.3299 58.4655 84.978 59.2303 84.978H78.7631C79.14 84.9779 79.5132 85.0646 79.8609 85.233C80.2087 85.4014 80.5241 85.6482 80.7888 85.959C81.0535 86.2697 81.2623 86.6383 81.403 87.0433C81.5437 87.4484 81.6135 87.8817 81.6084 88.3183V93.4401Z" fill="white"/>
<path d="M73.5339 104.664H64.0751V111.344H73.5339V104.664Z" fill="white"/>
<path d="M8.55282 118.648L0.862754 109.741C0.589551 109.43 0.372552 109.059 0.224422 108.65C0.0762927 108.241 0 107.802 0 107.358C0 106.914 0.0762927 106.475 0.224422 106.066C0.372552 105.657 0.589551 105.286 0.862754 104.975L8.55282 96.0678L12.6286 100.789L7.05326 107.247L12.6286 113.749L8.55282 118.648Z" fill="white"/>
</svg>
