<svg width="190" height="190" viewBox="0 0 190 190" fill="none" xmlns="http://www.w3.org/2000/svg">
<path d="M80.2216 129.2H4.22219C3.1024 129.2 2.02847 128.8 1.23665 128.087C0.444838 127.374 0 126.408 0 125.4V102.6H8.44438V121.6H80.2216V129.2ZM101.333 34.2V53.2H92.8882V38H63.3329C62.2131 38 61.1391 37.5996 60.3473 36.887C59.5555 36.1744 59.1107 35.2078 59.1107 34.2V7.6H8.44438V83.6H0V3.8C0 2.79218 0.444838 1.82563 1.23665 1.11299C2.02847 0.400357 3.1024 0 4.22219 0H63.7129C64.7025 0.0480816 65.6362 0.427625 66.3306 1.064L100.108 31.464C100.505 31.8236 100.817 32.2509 101.027 32.7207C101.238 33.1906 101.341 33.6935 101.333 34.2ZM86.9349 30.4L67.5551 12.958V30.4H86.9349ZM74.7328 100.7L53.1152 47.918H43.8263L22.2087 100.7H31.0753L36.3109 86.716H60.3773L65.7817 100.7H74.7328ZM48.3019 55.1L58.1818 80.94H38.5064L48.3019 55.1ZM189.999 95V186.2C189.999 187.208 189.554 188.174 188.762 188.887C187.97 189.6 186.896 190 185.776 190H92.8882C91.7684 190 90.6945 189.6 89.9027 188.887C89.1109 188.174 88.666 187.208 88.666 186.2V64.6C88.666 63.5922 89.1109 62.6256 89.9027 61.913C90.6945 61.2004 91.7684 60.8 92.8882 60.8H151.999C152.208 60.7631 152.423 60.7631 152.632 60.8C153.528 60.8878 154.363 61.25 154.997 61.826L188.774 92.226C189.176 92.5901 189.491 93.0235 189.702 93.5003C189.912 93.977 190.013 94.4872 189.999 95ZM156.221 91.2H175.601L156.221 73.758V91.2ZM181.554 98.8H151.999C150.879 98.8 149.805 98.3996 149.013 97.687C148.222 96.9744 147.777 96.0078 147.777 95V68.4H97.1104V182.4H181.554V98.8ZM151.999 60.8C152.208 60.7631 152.423 60.7631 152.632 60.8H151.999ZM166.312 160.892C167.009 159.73 167.875 158.656 168.888 157.7C169.159 157.456 169.353 157.151 169.449 156.817C169.546 156.483 169.541 156.132 169.437 155.8C169.325 155.476 169.122 155.184 168.849 154.951C168.575 154.718 168.24 154.552 167.874 154.47C159.867 152.932 152.321 149.86 145.75 145.464C151.322 139.8 155.623 133.219 158.417 126.084C159.075 125.913 159.645 125.536 160.021 125.02H166.608C167.168 125.02 167.705 124.82 168.1 124.464C168.496 124.107 168.719 123.624 168.719 123.12V119.7C168.719 119.196 168.496 118.713 168.1 118.356C167.705 118 167.168 117.8 166.608 117.8H143.555V112.708C144.17 112.289 144.591 111.68 144.737 110.998C144.779 110.735 144.759 110.468 144.679 110.213C144.599 109.958 144.46 109.72 144.272 109.516C143.882 109.12 143.338 108.875 142.752 108.832L137.517 108.528C137.226 108.501 136.931 108.531 136.654 108.617C136.377 108.702 136.124 108.84 135.912 109.022C135.7 109.203 135.53 109.421 135.414 109.662C135.298 109.904 135.237 110.165 135.237 110.428V117.838H112.479C111.919 117.838 111.382 118.038 110.986 118.395C110.591 118.751 110.368 119.234 110.368 119.738V123.234C110.368 123.738 110.591 124.221 110.986 124.578C111.382 124.934 111.919 125.134 112.479 125.134H119.741C122.707 132.68 127.25 139.646 133.126 145.654C126.578 149.922 119.204 153.053 111.381 154.888C111.047 154.977 110.742 155.137 110.492 155.356C110.242 155.574 110.055 155.844 109.946 156.142C109.838 156.445 109.817 156.767 109.883 157.079C109.949 157.391 110.102 157.683 110.326 157.928C111.133 158.761 111.802 159.696 112.31 160.702C112.516 161.137 112.892 161.489 113.366 161.692C113.841 161.895 114.381 161.935 114.886 161.804C123.714 159.562 132.004 155.864 139.332 150.898C146.548 156.169 154.99 159.909 164.032 161.842C164.199 161.879 164.372 161.879 164.539 161.842C164.9 161.833 165.253 161.742 165.563 161.575C165.874 161.409 166.132 161.174 166.312 160.892ZM149.888 125.134C147.467 130.729 143.933 135.88 139.459 140.334C134.853 135.905 131.19 130.753 128.65 125.134H149.888ZM67.5551 182.4C63.0759 182.4 58.7802 180.799 55.6129 177.948C52.4457 175.097 50.6663 171.231 50.6663 167.2V149.758L64.5573 162.298L70.5528 156.902L49.4419 137.902C49.0494 137.546 48.5824 137.263 48.0679 137.07C47.5534 136.877 47.0015 136.778 46.4441 136.778C45.8867 136.778 45.3349 136.877 44.8204 137.07C44.3058 137.263 43.8389 137.546 43.4464 137.902L22.3354 156.902L28.3309 162.298L42.2219 149.758V167.048C42.2219 173.095 44.8909 178.894 49.6418 183.17C54.3927 187.446 60.8363 189.848 67.5551 189.848H80.2216V182.248L67.5551 182.4ZM161.668 27.702L147.777 40.242V22.952C147.777 16.9051 145.108 11.1058 140.357 6.82997C135.606 2.55414 129.162 0.152 122.444 0.152H105.555V7.752H122.444C126.923 7.752 131.218 9.35342 134.386 12.204C137.553 15.0545 139.332 18.9207 139.332 22.952V40.242L125.441 27.702L119.446 33.098L140.557 52.098C140.949 52.4542 141.416 52.7369 141.931 52.9298C142.445 53.1227 142.997 53.222 143.555 53.222C144.112 53.222 144.664 53.1227 145.178 52.9298C145.693 52.7369 146.16 52.4542 146.552 52.098L167.663 33.098L161.668 27.702Z" fill="white"/>
</svg>
