<svg width="190" height="190" viewBox="0 0 190 190" fill="none" xmlns="http://www.w3.org/2000/svg">
<path d="M4.77558 190C3.95087 189.998 3.1407 189.783 2.42357 189.375C1.70645 188.968 1.10667 188.382 0.682358 187.674C0.258046 186.967 0.0235823 186.162 0.00168797 185.337C-0.0202064 184.513 0.171208 183.696 0.557387 182.967L16.5181 151.871C10.9353 142.599 7.99174 131.978 8.00573 121.154C8.07771 109.923 11.2667 98.9323 17.2173 89.4078C23.1678 79.8833 31.6459 72.1993 41.7063 67.2127C51.7667 62.226 63.014 60.1327 74.1941 61.1661C85.3741 62.1995 96.0475 66.319 105.024 73.0652L100.464 79.1477C90.6039 71.5809 78.3897 67.7397 65.9751 68.3016C53.5605 68.8634 41.7429 73.7921 32.606 82.2186C23.4692 90.6451 17.6 102.028 16.0333 114.361C14.4666 126.693 17.303 139.183 24.0425 149.628C24.4054 150.189 24.614 150.836 24.6473 151.503C24.6807 152.171 24.5376 152.835 24.2325 153.429L11.1599 178.9L37.3051 165.898C37.8993 165.593 38.5635 165.45 39.2307 165.483C39.8978 165.517 40.5444 165.725 41.1053 166.088C52.8356 173.203 66.8598 175.51 80.2501 172.528C93.6403 169.546 105.361 161.505 112.967 150.084L119.275 154.304C110.782 167.08 97.7766 176.174 82.8643 179.762C67.9521 183.35 52.2351 181.168 38.8632 173.653L6.94168 189.506C6.26609 189.832 5.52561 190.001 4.77558 190ZM102.592 106.861H94.9918V129.176H102.592V106.861ZM91.1916 91.3125H83.5912V144.534H91.1916V91.3125ZM79.7911 102.717H72.1907V133.129H79.7911V102.717ZM68.3905 91.3125H60.7902V144.534H68.3905V91.3125ZM56.99 98.9156H49.3897V136.931H56.99V98.9156ZM45.5895 95.114H37.9891V140.732H45.5895V95.114ZM34.1889 106.519H26.5886V133.129H34.1889V106.519ZM189.996 148.335V87.511H182.396V144.534H125.393V152.137H186.196C186.708 152.137 187.215 152.034 187.686 151.834C188.158 151.633 188.583 151.339 188.938 150.97C189.293 150.601 189.57 150.164 189.752 149.685C189.934 149.206 190.017 148.695 189.996 148.183V148.335ZM188.856 39.0796L150.55 1.06442C149.925 0.427796 149.085 0.0481008 148.194 0H79.7911C78.7832 0 77.8166 0.400513 77.1039 1.11344C76.3913 1.82636 75.9909 2.79329 75.9909 3.80152V53.2213H83.5912V7.60304H144.394V41.8167C144.333 42.3046 144.379 42.7999 144.528 43.2683C144.678 43.7366 144.928 44.1667 145.261 44.5285C145.594 44.8904 146.001 45.1753 146.455 45.3635C146.909 45.5517 147.399 45.6386 147.89 45.6182H182.396V64.6258H189.996V41.8167C190.02 41.282 189.931 40.7482 189.735 40.2504C189.538 39.7525 189.239 39.3017 188.856 38.9276V39.0796ZM151.994 38.0912V12.8111L176.924 37.9392L151.994 38.0912ZM167.195 53.2973H129.193V60.9004H167.195V53.2973ZM163.395 68.5034H113.993V76.1064H163.395V68.5034ZM129.193 30.4882H98.7919V38.0912H129.193V30.4882ZM121.593 53.2973H98.7919V60.9004H121.593V53.2973ZM113.993 95.114H106.392V140.732H113.993V95.114ZM125.393 102.717H117.793V133.129H125.393V102.717Z" fill="white"/>
</svg>
